Hanif_Deep_2_5_grf.mot
version=1
nRows=58
nColumns=19
inDegrees=yes
endheader
time	right_ground_force_vx	right_ground_force_vy	right_ground_force_vz	right_ground_force_px	right_ground_force_py	right_ground_force_pz	right_ground_torque_x	right_ground_torque_y	right_ground_torque_z	left_ground_force_vx	left_ground_force_vy	left_ground_force_vz	left_ground_force_px	left_ground_force_py	left_ground_force_pz	left_ground_torque_x	left_ground_torque_y	left_ground_torque_z
0.150000	-2.600710	275.307000	60.050600	0.201958	0.000000	-1.444050	-17.058100	0.014905	0.603233	1.034070	264.287000	-57.670700	0.204992	0.000000	-0.944032	10.830800	-3.209710	2.073260
0.155000	-2.436540	276.702000	59.972200	0.202015	0.000000	-1.444520	-17.014200	-0.002185	0.615762	0.348286	261.615000	-57.537200	0.204862	0.000000	-0.944241	10.784700	-3.162190	2.025800
0.160000	-2.168740	276.094000	59.958500	0.202015	0.000000	-1.444900	-16.872700	0.038136	0.619547	0.226112	262.875000	-57.515100	0.205018	0.000000	-0.944750	10.971900	-3.260000	2.093400
0.165000	-2.322990	278.445000	60.130500	0.202015	0.000000	-1.444880	-17.021900	-0.000541	0.617852	0.258694	263.346000	-56.858000	0.204948	0.000000	-0.944954	11.045100	-3.170670	2.045920
0.170000	-2.765150	279.945000	60.089200	0.201059	0.000000	-1.444110	-17.328900	-0.041608	0.337832	0.070995	263.963000	-57.321900	0.205287	0.000000	-0.944012	10.824600	-3.291450	2.175550
0.175000	-2.187860	278.474000	60.013400	0.201691	0.000000	-1.444200	-17.212300	-0.056415	0.509616	-0.195630	262.629000	-56.805500	0.204105	0.000000	-0.944477	10.895800	-3.311360	1.846650
0.180000	-2.071550	278.512000	60.250700	0.201924	0.000000	-1.444310	-17.184300	-0.000603	0.588394	0.346871	263.976000	-56.610300	0.204514	0.000000	-0.944292	10.895500	-3.265720	1.943720
0.185000	-1.649610	278.235000	60.441300	0.202631	0.000000	-1.443490	-17.394400	-0.096797	0.767974	-0.091448	265.802000	-56.508600	0.205057	0.000000	-0.944354	10.993300	-3.311400	2.109780
0.190000	-2.090010	279.698000	59.903100	0.201679	0.000000	-1.444070	-17.322400	-0.138659	0.489128	-0.275276	266.856000	-57.217500	0.204434	0.000000	-0.945100	11.238300	-3.339870	1.956130
0.195000	-2.159060	279.977000	60.753100	0.201939	0.000000	-1.443140	-17.602400	-0.023383	0.592801	-0.108641	266.174000	-56.486300	0.204537	0.000000	-0.944642	11.085500	-3.268480	1.956490
0.200000	-2.262200	280.350000	60.357400	0.202608	0.000000	-1.444370	-17.279600	-0.063823	0.781438	-0.290213	268.214000	-56.566500	0.203801	0.000000	-0.943775	10.940300	-3.309760	1.765400
0.205000	-1.671610	279.678000	59.881000	0.202527	0.000000	-1.444430	-17.221800	0.034510	0.768679	-0.302146	267.690000	-56.960700	0.203822	0.000000	-0.944462	11.103000	-3.255080	1.764740
0.210000	-2.268490	278.674000	59.810400	0.202648	0.000000	-1.444550	-17.124800	-0.102934	0.779684	-0.816467	267.613000	-57.156900	0.203709	0.000000	-0.944831	11.205600	-3.381130	1.767290
0.215000	-2.266200	278.924000	60.037400	0.201848	0.000000	-1.443920	-17.318000	-0.121554	0.543445	-0.254446	268.364000	-57.182600	0.203414	0.000000	-0.945622	11.441500	-3.345400	1.672850
0.220000	-2.002390	279.944000	59.771600	0.202962	0.000000	-1.444030	-17.350400	-0.144628	0.862627	-0.054559	265.986000	-57.021500	0.202677	0.000000	-0.944956	11.160500	-3.298730	1.452560
0.225000	-2.211900	278.089000	59.071300	0.201641	0.000000	-1.442970	-17.529700	-0.117667	0.481665	-0.416328	267.668000	-57.103800	0.202225	0.000000	-0.944851	11.207700	-3.412470	1.354490
0.230000	-2.141210	276.657000	59.126300	0.201674	0.000000	-1.442620	-17.535800	-0.083110	0.495432	-0.755600	268.637000	-57.265100	0.201912	0.000000	-0.944331	11.113000	-3.394740	1.267200
0.235000	-2.842680	278.788000	58.718800	0.201832	0.000000	-1.443370	-17.464400	-0.025078	0.565568	0.101903	269.785000	-57.305700	0.201240	0.000000	-0.944353	11.155000	-3.336860	1.057590
0.240000	-2.835500	276.365000	58.360400	0.202359	0.000000	-1.442670	-17.504800	-0.064287	0.705467	0.124505	269.678000	-57.035300	0.201474	0.000000	-0.944915	11.302000	-3.359530	1.124690
0.245000	-2.396510	275.239000	58.244700	0.201819	0.000000	-1.442800	-17.396600	-0.132745	0.526927	0.032271	270.484000	-57.227100	0.200451	0.000000	-0.944078	11.110700	-3.479450	0.863375
0.250000	-2.661970	276.297000	57.606700	0.201724	0.000000	-1.442750	-17.478300	-0.073554	0.516949	-0.295152	271.850000	-56.777900	0.200738	0.000000	-0.945013	11.425200	-3.536850	0.950641
0.255000	-1.803950	274.735000	56.847600	0.201592	0.000000	-1.442490	-17.448700	-0.036705	0.472156	0.585653	270.518000	-56.968400	0.199680	0.000000	-0.945267	11.426400	-3.515980	0.644855
0.260000	-1.984580	272.794000	56.572500	0.201069	0.000000	-1.442110	-17.430100	0.065912	0.344123	0.584319	271.904000	-57.220200	0.199981	0.000000	-0.945105	11.441200	-3.467310	0.719022
0.265000	-2.174860	271.406000	55.603300	0.202303	0.000000	-1.442300	-17.289900	0.001704	0.680099	1.197430	271.986000	-57.003600	0.199055	0.000000	-0.945825	11.632700	-3.560160	0.466948
0.270000	-2.194570	269.406000	54.930100	0.201214	0.000000	-1.441880	-17.277100	-0.014254	0.366446	1.306460	274.434000	-56.903000	0.199422	0.000000	-0.945464	11.636800	-3.617750	0.573289
0.275000	-2.709100	265.920000	54.465900	0.201705	0.000000	-1.441510	-17.150900	-0.044860	0.498903	1.818030	274.873000	-56.866600	0.199361	0.000000	-0.945892	11.767200	-3.525550	0.530165
0.280000	-2.826810	262.140000	53.052500	0.201813	0.000000	-1.441030	-17.035000	-0.042353	0.523366	1.817390	274.189000	-57.024900	0.198697	0.000000	-0.945598	11.656500	-3.669930	0.374351
0.285000	-2.592710	260.970000	52.202500	0.202029	0.000000	-1.440870	-16.998900	-0.008173	0.582963	2.459640	274.531000	-57.234100	0.198638	0.000000	-0.946806	11.996200	-3.510350	0.319085
0.290000	-2.776330	259.468000	51.216900	0.202701	0.000000	-1.440610	-16.968700	-0.045707	0.755006	2.360080	274.515000	-57.235900	0.198665	0.000000	-0.947147	12.089900	-3.576680	0.341489
0.295000	-3.089940	257.579000	50.007000	0.201450	0.000000	-1.439610	-17.103500	-0.142484	0.399784	2.448500	277.378000	-56.426700	0.198863	0.000000	-0.945777	11.834900	-3.635550	0.389761
0.300000	-3.746860	253.508000	48.331000	0.202734	0.000000	-1.437800	-17.293200	-0.196590	0.729451	2.039340	274.591000	-56.580700	0.198459	0.000000	-0.947090	12.082100	-3.493560	0.260188
0.305000	-3.959560	252.384000	47.766000	0.202722	0.000000	-1.439130	-16.879300	-0.240445	0.716319	1.940600	276.721000	-56.049900	0.198365	0.000000	-0.947494	12.289300	-3.486350	0.217754
0.310000	-4.854620	250.137000	46.770800	0.204636	0.000000	-1.437320	-17.182700	-0.371812	1.193010	1.886030	276.349000	-55.582500	0.198735	0.000000	-0.947410	12.250700	-3.366930	0.296558
0.315000	-5.264750	246.732000	45.046100	0.204656	0.000000	-1.437830	-16.821000	-0.454227	1.169590	1.338090	275.675000	-54.836000	0.198969	0.000000	-0.947895	12.360900	-3.307610	0.350479
0.320000	-5.557520	244.797000	43.602900	0.203922	0.000000	-1.436760	-16.951100	-0.512204	0.967865	0.830394	273.862000	-54.337000	0.199777	0.000000	-0.949383	12.693000	-3.214910	0.566827
0.325000	-6.285720	235.658000	42.137600	0.205540	0.000000	-1.435570	-16.599400	-0.636402	1.312740	-0.107493	274.574000	-53.135200	0.200210	0.000000	-0.949356	12.729600	-3.277500	0.694975
0.330000	-6.453100	231.175000	40.783400	0.205296	0.000000	-1.434480	-16.532900	-0.673023	1.225200	-0.451556	272.444000	-51.953400	0.200666	0.000000	-0.950257	12.880100	-3.162840	0.795217
0.335000	-6.909960	223.762000	38.883400	0.204860	0.000000	-1.434250	-16.054200	-0.722448	1.081020	-2.451700	267.739000	-50.265000	0.200435	0.000000	-0.950023	12.619600	-3.096170	0.723375
0.340000	-6.874720	219.255000	36.610900	0.205701	0.000000	-1.435910	-15.365500	-0.780584	1.235010	-2.625840	266.304000	-49.679300	0.201800	0.000000	-0.951129	12.847700	-2.900300	1.060580
0.345000	-6.880060	212.146000	35.408900	0.205160	0.000000	-1.434310	-15.204500	-0.811019	1.072200	-4.051390	258.274000	-47.894800	0.201850	0.000000	-0.952474	12.828500	-2.933100	1.075430
0.350000	-7.447480	206.617000	33.062300	0.204774	0.000000	-1.434030	-14.857900	-1.060250	0.927749	-3.580120	253.925000	-45.603200	0.201276	0.000000	-0.950899	12.205200	-2.785110	0.865414
0.355000	-7.192420	198.475000	31.323600	0.204684	0.000000	-1.433730	-14.335000	-0.923218	0.889127	-3.688820	247.327000	-43.843200	0.202063	0.000000	-0.953039	12.421100	-2.755910	1.047630
0.360000	-7.461580	192.840000	29.679600	0.204953	0.000000	-1.432320	-14.197100	-0.992720	0.909514	-3.905890	239.580000	-42.358700	0.201395	0.000000	-0.952808	11.980400	-2.651880	0.847912
0.365000	-7.302150	184.958000	27.856300	0.205015	0.000000	-1.431160	-13.826000	-1.119500	0.862297	-4.234450	229.395000	-39.026500	0.201166	0.000000	-0.953967	11.744200	-2.582310	0.751164
0.370000	-7.222770	180.459000	26.199500	0.204265	0.000000	-1.433570	-13.049900	-1.141000	0.696182	-4.276570	222.389000	-36.938900	0.199595	0.000000	-0.952776	11.122400	-2.546680	0.365824
0.375000	-6.303590	173.748000	25.270100	0.203864	0.000000	-1.432440	-12.757100	-1.235920	0.573253	-4.986450	209.430000	-34.634100	0.199764	0.000000	-0.955099	10.976500	-2.491310	0.404130
0.380000	-5.680400	167.082000	23.783500	0.203610	0.000000	-1.431150	-12.482400	-1.208040	0.503935	-5.455350	201.284000	-31.526900	0.198804	0.000000	-0.954581	10.455200	-2.438490	0.179268
0.385000	-4.746610	162.939000	23.737600	0.203652	0.000000	-1.431740	-12.079100	-1.124740	0.495183	-6.432160	190.405000	-29.025600	0.198968	0.000000	-0.954602	9.917550	-2.426990	0.219560
0.390000	-3.939340	157.001000	22.548100	0.202111	0.000000	-1.431180	-11.725100	-1.228710	0.204095	-6.798710	178.703000	-25.790200	0.196380	0.000000	-0.952817	9.001880	-2.368850	-0.269600
0.395000	-4.116610	154.659000	21.817900	0.200788	0.000000	-1.431540	-11.493100	-1.208080	-0.002857	-6.366090	167.021000	-23.420400	0.194824	0.000000	-0.956005	8.953670	-2.426980	-0.493781
0.400000	-3.597050	152.049000	21.150400	0.202257	0.000000	-1.429460	-11.616000	-1.237610	0.215939	-5.833210	156.457000	-20.818700	0.192529	0.000000	-0.951103	7.621680	-2.437300	-0.827869
0.405000	-3.140980	147.271000	20.409100	0.201448	0.000000	-1.429250	-11.281200	-1.296690	0.071064	-4.495550	145.556000	-18.582300	0.189723	0.000000	-0.950813	7.037500	-2.504770	-1.173060
0.410000	-3.287930	148.692000	20.956100	0.202980	0.000000	-1.428790	-11.458500	-1.294800	0.305174	-2.462630	138.450000	-17.563800	0.187433	0.000000	-0.953863	7.087450	-2.652440	-1.415560
0.415000	-2.243100	148.726000	20.145000	0.203135	0.000000	-1.426280	-11.838700	-1.386680	0.311237	-1.246400	130.445000	-16.273100	0.183344	0.000000	-0.952230	6.446910	-2.835910	-1.845030
0.420000	-1.971660	152.799000	21.036100	0.205803	0.000000	-1.428520	-11.823700	-1.458160	0.723840	0.530174	119.229000	-15.444200	0.179061	0.000000	-0.953173	5.970920	-2.854180	-2.172210
0.425000	-1.886430	153.866000	21.305500	0.206881	0.000000	-1.424720	-12.491100	-1.487030	0.894383	3.771390	117.289000	-15.537000	0.176470	0.000000	-0.952560	5.735030	-2.971250	-2.439430
0.430000	-2.435150	157.242000	21.766600	0.207431	0.000000	-1.424970	-12.722200	-1.626400	0.993054	5.926450	113.919000	-15.809900	0.173243	0.000000	-0.950607	5.299990	-3.076040	-2.719090
0.435000	-2.288950	160.248000	22.402000	0.211674	0.000000	-1.423200	-13.249800	-1.791790	1.683330	7.468350	110.231000	-16.500800	0.168064	0.000000	-0.950943	5.129750	-3.174230	-3.177700
